<svg width="50" height="50" viewBox="0 0 50 50" fill="none" xmlns="http://www.w3.org/2000/svg">
<path d="M25 0C29.9445 0 34.778 1.46622 38.8892 4.21326C43.0005 6.96029 46.2048 10.8648 48.097 15.4329C49.9892 20.0011 50.4843 25.0277 49.5196 29.8773C48.555 34.7268 46.174 39.1814 42.6777 42.6777C39.1813 46.174 34.7268 48.555 29.8773 49.5196C25.0277 50.4842 20.0011 49.9892 15.4329 48.097C10.8648 46.2048 6.96029 43.0005 4.21326 38.8892C1.46622 34.778 0 29.9445 0 25C0.00699997 18.3717 2.64317 12.017 7.33006 7.33006C12.017 2.64317 18.3717 0.00699956 25 0ZM25 46.1538C29.1838 46.1538 33.2737 44.9132 36.7524 42.5888C40.2312 40.2644 42.9425 36.9606 44.5436 33.0952C46.1447 29.2299 46.5636 24.9765 45.7474 20.8731C44.9311 16.7696 42.9164 13.0004 39.958 10.042C36.9996 7.08355 33.2303 5.06884 29.1269 4.25262C25.0235 3.43639 20.7701 3.85531 16.9048 5.45639C13.0394 7.05748 9.73563 9.76882 7.41122 13.2475C5.0868 16.7263 3.84615 20.8162 3.84615 25C3.85252 30.6084 6.08326 35.9853 10.049 39.951C14.0147 43.9167 19.3916 46.1475 25 46.1538ZM17.8702 23.6394C17.6914 23.818 17.5495 24.0301 17.4528 24.2636C17.356 24.497 17.3062 24.7473 17.3062 25C17.3062 25.2527 17.356 25.503 17.4528 25.7364C17.5495 25.9699 17.6914 26.182 17.8702 26.3606L27.4856 35.976C27.6642 36.1546 27.8764 36.2964 28.1098 36.3931C28.3433 36.4898 28.5935 36.5395 28.8461 36.5395C29.0988 36.5395 29.349 36.4898 29.5825 36.3931C29.8159 36.2964 30.0281 36.1546 30.2067 35.976C30.3854 35.7973 30.5271 35.5852 30.6238 35.3517C30.7205 35.1183 30.7703 34.8681 30.7703 34.6154C30.7703 34.3627 30.7205 34.1125 30.6238 33.879C30.5271 33.6456 30.3854 33.4335 30.2067 33.2548L21.9495 25L30.2067 16.7452C30.5676 16.3843 30.7703 15.8949 30.7703 15.3846C30.7703 14.8743 30.5676 14.3849 30.2067 14.024C29.8459 13.6632 29.3565 13.4605 28.8461 13.4605C28.3358 13.4605 27.8464 13.6632 27.4856 14.024L17.8702 23.6394Z" fill="white" fill-opacity="0.4"/>
</svg>
