<svg width="50" height="50" viewBox="0 0 50 50" fill="none" xmlns="http://www.w3.org/2000/svg">
<path d="M25 0C20.0555 0 15.222 1.46622 11.1108 4.21326C6.99952 6.96029 3.79521 10.8648 1.90302 15.4329C0.0108321 20.0011 -0.484251 25.0277 0.480379 29.8773C1.44501 34.7268 3.82603 39.1814 7.32234 42.6777C10.8187 46.174 15.2732 48.555 20.1227 49.5196C24.9723 50.4842 29.9989 49.9892 34.5671 48.097C39.1352 46.2048 43.0397 43.0005 45.7867 38.8892C48.5338 34.778 50 29.9445 50 25C49.993 18.3717 47.3568 12.017 42.6699 7.33006C37.983 2.64317 31.6283 0.00699956 25 0ZM25 46.1538C20.8162 46.1538 16.7263 44.9132 13.2476 42.5888C9.76883 40.2644 7.05749 36.9606 5.4564 33.0952C3.85532 29.2299 3.4364 24.9765 4.25263 20.8731C5.06885 16.7696 7.08356 13.0004 10.042 10.042C13.0004 7.08355 16.7697 5.06884 20.8731 4.25262C24.9765 3.43639 29.2299 3.85531 33.0952 5.45639C36.9606 7.05748 40.2644 9.76882 42.5888 13.2475C44.9132 16.7263 46.1538 20.8162 46.1538 25C46.1475 30.6084 43.9167 35.9853 39.951 39.951C35.9853 43.9167 30.6084 46.1475 25 46.1538ZM32.1298 23.6394C32.3086 23.818 32.4505 24.0301 32.5472 24.2636C32.644 24.497 32.6938 24.7473 32.6938 25C32.6938 25.2527 32.644 25.503 32.5472 25.7364C32.4505 25.9699 32.3086 26.182 32.1298 26.3606L22.5144 35.976C22.3358 36.1546 22.1236 36.2964 21.8902 36.3931C21.6567 36.4898 21.4065 36.5395 21.1539 36.5395C20.9012 36.5395 20.651 36.4898 20.4175 36.3931C20.1841 36.2964 19.9719 36.1546 19.7933 35.976C19.6146 35.7973 19.4729 35.5852 19.3762 35.3517C19.2795 35.1183 19.2297 34.8681 19.2297 34.6154C19.2297 34.3627 19.2795 34.1125 19.3762 33.879C19.4729 33.6456 19.6146 33.4335 19.7933 33.2548L28.0505 25L19.7933 16.7452C19.4324 16.3843 19.2297 15.8949 19.2297 15.3846C19.2297 14.8743 19.4324 14.3849 19.7933 14.024C20.1541 13.6632 20.6435 13.4605 21.1539 13.4605C21.6642 13.4605 22.1536 13.6632 22.5144 14.024L32.1298 23.6394Z" fill="white" fill-opacity="0.4"/>
</svg>
